<svg width="36" height="36" viewBox="0 0 36 36" fill="none" xmlns="http://www.w3.org/2000/svg">
<path d="M16 2C16 0.89543 15.1046 0 14 0C12.8954 0 12 0.89543 12 2H16ZM12 34C12 35.1046 12.8954 36 14 36C15.1046 36 16 35.1046 16 34H12ZM24 2C24 0.89543 23.1046 0 22 0C20.8954 0 20 0.89543 20 2H24ZM20 34C20 35.1046 20.8954 36 22 36C23.1046 36 24 35.1046 24 34H20ZM6.44709 17.7956L6.96472 15.8637L6.44709 17.7956ZM2.20445 13.5529L4.1363 13.0353L2.20445 13.5529ZM33.7956 13.5529L31.8637 13.0353L33.7956 13.5529ZM29.5529 17.7956L29.0353 15.8637L29.5529 17.7956ZM29.5529 2.20445L29.0353 4.1363L29.5529 2.20445ZM33.7956 6.44709L31.8637 6.96472L33.7956 6.44709ZM6.44709 2.20445L6.96472 4.1363L6.44709 2.20445ZM2.20445 6.44709L4.1363 6.96472L2.20445 6.44709ZM2.20445 21.5529L0.272593 22.0706L2.20445 21.5529ZM6.44709 25.7956L5.92945 27.7274H5.92945L6.44709 25.7956ZM33.7956 21.5529L35.7274 22.0706V22.0706L33.7956 21.5529ZM29.5529 25.7956L29.0353 23.8637L29.5529 25.7956ZM6.44709 33.7956L5.92945 35.7274H5.92945L6.44709 33.7956ZM2.20445 29.5529L4.1363 29.0353L4.1363 29.0353L2.20445 29.5529ZM29.5529 33.7956L30.0706 35.7274H30.0706L29.5529 33.7956ZM33.7956 29.5529L35.7274 30.0706V30.0706L33.7956 29.5529ZM8 8C6.89543 8 6 8.89543 6 10C6 11.1046 6.89543 12 8 12V8ZM8.02 12C9.12457 12 10.02 11.1046 10.02 10C10.02 8.89543 9.12457 8 8.02 8V12ZM28 8C26.8954 8 26 8.89543 26 10C26 11.1046 26.8954 12 28 12V8ZM28.02 12C29.1246 12 30.02 11.1046 30.02 10C30.02 8.89543 29.1246 8 28.02 8V12ZM12 2V34H16V2H12ZM20 2V34H24V2H20ZM10 4H26V0H10V4ZM26 16H10V20H26V16ZM10 16C8.01129 16 7.40928 15.9828 6.96472 15.8637L5.92945 19.7274C7.01089 20.0172 8.26882 20 10 20V16ZM0 10C0 11.7312 -0.0171783 12.9891 0.272593 14.0706L4.1363 13.0353C4.01718 12.5907 4 11.9887 4 10H0ZM6.96472 15.8637C5.58436 15.4938 4.50617 14.4156 4.1363 13.0353L0.272593 14.0706C1.01233 16.8313 3.16871 18.9877 5.92945 19.7274L6.96472 15.8637ZM32 10C32 11.9887 31.9828 12.5907 31.8637 13.0353L35.7274 14.0706C36.0172 12.9891 36 11.7312 36 10H32ZM26 20C27.7312 20 28.9891 20.0172 30.0706 19.7274L29.0353 15.8637C28.5907 15.9828 27.9887 16 26 16V20ZM31.8637 13.0353C31.4938 14.4156 30.4156 15.4938 29.0353 15.8637L30.0706 19.7274C32.8313 18.9877 34.9877 16.8313 35.7274 14.0706L31.8637 13.0353ZM26 4C27.9887 4 28.5907 4.01718 29.0353 4.1363L30.0706 0.272593C28.9891 -0.0171783 27.7312 0 26 0V4ZM36 10C36 8.26882 36.0172 7.01089 35.7274 5.92945L31.8637 6.96472C31.9828 7.40928 32 8.01129 32 10H36ZM29.0353 4.1363C30.4156 4.50617 31.4938 5.58436 31.8637 6.96472L35.7274 5.92945C34.9877 3.16871 32.8313 1.01233 30.0706 0.272593L29.0353 4.1363ZM10 0C8.26882 0 7.01089 -0.0171783 5.92945 0.272593L6.96472 4.1363C7.40928 4.01718 8.01129 4 10 4V0ZM4 10C4 8.01129 4.01718 7.40928 4.1363 6.96472L0.272593 5.92945C-0.0171783 7.01089 0 8.26882 0 10H4ZM5.92945 0.272593C3.16871 1.01233 1.01233 3.16871 0.272593 5.92945L4.1363 6.96472C4.50617 5.58436 5.58436 4.50617 6.96472 4.1363L5.92945 0.272593ZM14 24H10V28H14V24ZM26 24H22V28H26V24ZM0 18C0 19.7312 -0.0171783 20.9891 0.272593 22.0706L4.1363 21.0353C4.01718 20.5907 4 19.9887 4 18H0ZM10 24C8.01129 24 7.40928 23.9828 6.96472 23.8637L5.92945 27.7274C7.01089 28.0172 8.26882 28 10 28V24ZM0.272593 22.0706C1.01233 24.8313 3.16871 26.9877 5.92945 27.7274L6.96472 23.8637C5.58436 23.4938 4.50617 22.4156 4.1363 21.0353L0.272593 22.0706ZM32 18C32 19.9887 31.9828 20.5907 31.8637 21.0353L35.7274 22.0706C36.0172 20.9891 36 19.7312 36 18H32ZM26 28C27.7312 28 28.9891 28.0172 30.0706 27.7274L29.0353 23.8637C28.5907 23.9828 27.9887 24 26 24V28ZM31.8637 21.0353C31.4938 22.4156 30.4156 23.4938 29.0353 23.8637L30.0706 27.7274C32.8313 26.9877 34.9877 24.8313 35.7274 22.0706L31.8637 21.0353ZM26 32H10V36H26V32ZM36 26V10H32V26H36ZM4 26V10H0V26H4ZM10 32C8.01129 32 7.40928 31.9828 6.96472 31.8637L5.92945 35.7274C7.01089 36.0172 8.26882 36 10 36V32ZM0 26C0 27.7312 -0.0171785 28.9891 0.272593 30.0706L4.1363 29.0353C4.01718 28.5907 4 27.9887 4 26H0ZM6.96473 31.8637C5.58436 31.4938 4.50617 30.4156 4.1363 29.0353L0.272593 30.0706C1.01233 32.8313 3.16871 34.9877 5.92945 35.7274L6.96473 31.8637ZM26 36C27.7312 36 28.9891 36.0172 30.0706 35.7274L29.0353 31.8637C28.5907 31.9828 27.9887 32 26 32V36ZM32 26C32 27.9887 31.9828 28.5907 31.8637 29.0353L35.7274 30.0706C36.0172 28.9891 36 27.7312 36 26H32ZM30.0706 35.7274C32.8313 34.9877 34.9877 32.8313 35.7274 30.0706L31.8637 29.0353C31.4938 30.4156 30.4156 31.4938 29.0353 31.8637L30.0706 35.7274ZM8 12H8.02V8H8V12ZM28 12H28.02V8H28V12Z" fill="#F97B07"/>
</svg>
