<svg width="37" height="22" viewBox="0 0 37 22" fill="none" xmlns="http://www.w3.org/2000/svg">
<path d="M7.74619 19.3936C7.04568 19.6703 6.32443 19.8881 5.58955 20.045C4.66339 20.2349 3.724 20.3706 2.78461 20.2757C2.12306 20.2078 1.46152 20.1264 0.852897 19.7464C0.244275 19.3665 -0.0468059 18.6609 0.00611889 17.8738C0.0819922 16.7974 0.484218 15.8324 0.889303 14.8606C0.908042 14.8157 0.926794 14.7707 0.945513 14.7257C1.48704 13.4175 2.16111 12.1713 2.95661 11.0076C3.67442 9.94152 4.46122 8.92604 5.3117 7.96805C6.57318 6.50851 7.96887 5.17705 9.47943 3.99216C10.7483 3.02394 12.1537 2.25979 13.6472 1.72604C14.3631 1.47686 15.0919 1.26847 15.8303 1.10184C16.0935 1.03885 16.3625 1.01167 16.6296 0.98467L16.6298 0.984651C16.7654 0.97094 16.9006 0.957278 17.0343 0.938999C17.5116 0.866807 17.9952 0.848605 18.4764 0.884722C19.0642 0.924006 19.6482 1.01021 20.2229 1.14254C20.9743 1.35714 21.6982 1.66233 22.3795 2.05171C23.2131 2.52664 23.6497 3.21869 23.6233 4.1957C23.5968 5.17271 23.3454 5.7562 22.7235 6.31255C22.6177 6.42111 22.5383 6.44825 22.4192 6.31255C21.7974 5.62051 20.9903 5.36269 20.1038 5.24056C19.4086 5.16129 18.7064 5.1704 18.0134 5.2677C17.3014 5.34505 16.6001 5.50437 15.9229 5.74264C14.7501 6.13494 13.6265 6.66784 12.5755 7.33027C11.8318 7.78225 11.116 8.28074 10.4321 8.82293C9.37668 9.62673 8.39366 10.5259 7.4948 11.5097C6.67449 12.4189 5.90709 13.3687 5.45724 14.5493C5.2027 15.1424 5.14236 15.8042 5.28524 16.4355C5.33091 16.5514 5.40473 16.6534 5.49968 16.7317C5.59463 16.8101 5.70755 16.8623 5.82771 16.8833C6.83325 17.019 7.77265 16.7476 8.69881 16.3948C8.74156 16.3765 8.78335 16.3553 8.82522 16.334C8.93884 16.2763 9.78043 15.9145 9.78043 15.9145C9.87559 15.8773 9.97058 15.8401 10.0616 15.7977C10.8025 15.4449 11.5435 15.0785 12.2712 14.6986C13.3826 14.1015 14.4807 13.4773 15.5657 12.8395C16.0555 12.5547 16.5415 12.2639 17.0273 11.9732C17.8143 11.5023 18.6009 11.0317 19.4026 10.587C20.3857 10.0329 21.4021 9.54346 22.4457 9.12147C22.9353 8.93149 23.4248 8.7958 23.954 8.87721C24.4703 8.95664 24.8859 9.13939 25.3359 9.33726L25.3697 9.35215C25.6544 9.47725 25.799 9.56134 25.9328 9.63908C26.0166 9.68783 26.0962 9.73408 26.2033 9.78638C26.2366 9.79819 26.2671 9.81703 26.2928 9.8417C26.3185 9.86637 26.3389 9.89631 26.3526 9.92957C26.3663 9.96283 26.3731 9.99868 26.3724 10.0348C26.3718 10.0709 26.3637 10.1065 26.3488 10.1392L25.7534 12.0796L25.7533 12.08L25.7532 12.0803C25.5945 12.65 25.4358 13.2197 25.2904 13.803L24.8934 15.2278L24.5362 16.7611C24.4899 16.9646 24.4403 17.1715 24.3907 17.3784C24.3411 17.5854 24.2914 17.7924 24.2451 17.996C24.2228 18.2151 24.1874 18.4326 24.1393 18.6473C24.0996 18.7966 24.2319 18.7423 24.2848 18.7152L26.1107 17.9146C27.447 17.3311 28.7833 16.7476 30.1329 16.2048C30.9192 15.8885 31.5934 15.6044 32.2547 15.3258L32.2552 15.3256C32.7285 15.1261 33.1953 14.9295 33.692 14.7257L35.4384 14.0201C35.5724 13.9193 35.7244 13.868 35.8783 13.8161C35.9524 13.7911 36.0269 13.766 36.1 13.7351C35.9141 13.8918 35.7068 14.0197 35.4849 14.1147C35.4842 14.1153 35.4835 14.1158 35.4828 14.1163C35.4821 14.1169 35.4813 14.1174 35.4806 14.1179C35.4719 14.1237 35.462 14.1274 35.4517 14.1286L30.4769 16.9783L26.6664 19.1494C25.6079 19.7465 24.5362 20.3299 23.4248 20.8184C23.1004 20.9527 22.7634 21.0527 22.4193 21.117C21.8636 21.2255 21.5989 20.7777 21.6916 20.2757C21.7389 20.0193 21.7654 19.8478 21.789 19.6962C21.8115 19.551 21.8312 19.424 21.8636 19.2579C21.8937 19.1032 21.9322 18.8947 21.9739 18.6687L21.9743 18.6663L21.9744 18.6661C22.0239 18.3974 22.078 18.1041 22.1282 17.8467C22.1638 17.6638 22.1975 17.477 22.2315 17.2884L22.2316 17.2879C22.2859 16.9868 22.341 16.6814 22.406 16.3812C22.5119 15.8927 22.5913 15.472 22.6706 15.0242C22.6942 14.8915 22.7212 14.7492 22.7493 14.6013L22.7494 14.6006C22.8161 14.2497 22.8887 13.867 22.9353 13.5044C22.9537 13.3607 22.9721 13.2423 22.9883 13.1385C23.0301 12.8702 23.0565 12.7005 23.0279 12.446C22.9617 11.659 22.6177 11.6047 21.9959 11.7947C21.3547 11.9826 20.7918 12.331 20.2289 12.6795C20.06 12.784 19.8911 12.8886 19.7202 12.9888C18.8682 13.4817 18.0242 13.9828 17.1816 14.4831L17.1812 14.4834L17.1802 14.484L17.18 14.4841L17.178 14.4853C16.4909 14.8933 15.8047 15.3007 15.1158 15.7027C13.581 16.5983 12.4167 17.2089 11.0407 17.9281C10.4497 18.2447 9.8411 18.5297 9.21483 18.783C9.09093 18.8692 8.95148 18.9292 8.80468 18.9594C8.62484 19.0698 8.42795 19.1478 8.22252 19.1901C8.09903 19.2715 7.99906 19.3047 7.89909 19.3379C7.84911 19.3544 7.79913 19.371 7.74619 19.3936Z" fill="#F97700"/>
</svg>
