<svg width="256" height="256" viewBox="0 0 256 256" fill="none" xmlns="http://www.w3.org/2000/svg">
<path d="M20.89 157.805C10.3278 173.712 7.33197 188.167 8.11879 200.121C9.54036 221.717 33.0439 230.667 54.7051 230.667H199.497C211.675 230.667 222.383 221.465 226.992 210.202C237.234 185.169 255.401 153.262 243.589 122.723C228.23 83.0149 205.576 90.3397 176.779 56.0288C147.982 21.7179 113.041 20.9469 70.4214 48.704C27.8015 76.4611 50.0712 113.856 20.89 157.805Z" fill="#FADCC0"/>
<path d="M184.041 170.749C183.08 193.521 197.266 218.451 205.318 229.201C205.739 229.762 206.398 230.081 207.099 230.081H213.086C214.444 230.081 215.496 228.873 215.317 227.527C209.983 187.357 195.201 172.349 186.544 168.978C185.315 168.499 184.096 169.432 184.041 170.749Z" fill="white"/>
<path fill-rule="evenodd" clip-rule="evenodd" d="M186.27 169.682C185.602 169.422 184.833 169.894 184.795 170.781C184.321 182.011 187.584 193.818 191.995 204.188C196.402 214.55 201.93 223.418 205.923 228.748C206.195 229.112 206.627 229.325 207.099 229.325H213.086C213.985 229.325 214.687 228.523 214.568 227.626C209.248 187.561 194.543 172.904 186.27 169.682ZM183.286 170.717C183.36 168.969 185.028 167.577 186.818 168.274C195.858 171.795 210.718 187.154 216.066 227.427C216.304 229.223 214.904 230.836 213.086 230.836H207.099C206.169 230.836 205.282 230.412 204.714 229.654C200.654 224.234 195.063 215.262 190.604 204.779C186.149 194.302 182.799 182.259 183.286 170.717Z" fill="#0A275E"/>
<path d="M229.365 157.171C210.731 173.826 207 212.858 207.054 228.184C207.058 229.407 208.062 230.356 209.285 230.356H214.828C215.666 230.356 216.446 229.878 216.834 229.134C235.484 193.381 233.565 171.18 232.889 158.803C232.79 156.984 230.723 155.957 229.365 157.171Z" fill="#0A275E"/>
<path d="M244.077 192.016C229.386 199.037 217.809 216.389 212.46 226.93C211.717 228.395 212.805 230.081 214.448 230.081H221.037C221.473 230.081 221.905 229.953 222.269 229.711C238.276 219.09 244.908 203.307 246.81 194.153C247.147 192.532 245.571 191.302 244.077 192.016Z" fill="white"/>
<path fill-rule="evenodd" clip-rule="evenodd" d="M246.07 194C246.28 192.994 245.336 192.252 244.403 192.697C237.195 196.142 230.711 202.144 225.348 208.634C219.99 215.118 215.788 222.042 213.134 227.272C212.659 228.207 213.338 229.325 214.448 229.325H221.037C221.328 229.325 221.614 229.24 221.852 229.082L222.269 229.711L221.852 229.082C237.651 218.599 244.197 203.014 246.07 194ZM243.752 191.334C245.807 190.352 248.014 192.071 247.55 194.307C245.619 203.599 238.902 219.582 222.687 230.341C222.197 230.666 221.619 230.836 221.037 230.836H214.448C212.272 230.836 210.775 228.582 211.787 226.588C214.482 221.277 218.743 214.255 224.183 207.672C229.618 201.095 236.268 194.911 243.752 191.334Z" fill="#0A275E"/>
<path fill-rule="evenodd" clip-rule="evenodd" d="M191.981 177.79C195.071 181.984 197.982 187.726 200.593 193.94C202.361 198.148 203.997 202.588 205.463 206.937L206.922 202.279L208.363 202.731L206.277 209.394C207.617 213.513 208.794 217.494 209.775 221.056C210.681 224.346 211.42 227.28 211.963 229.635L210.491 229.975C209.972 227.724 209.271 224.933 208.413 221.8L203.197 219.464L203.815 218.085L207.887 219.909C206.985 216.71 205.937 213.221 204.766 209.633C203.168 204.738 201.343 199.662 199.35 194.884L192.311 193.315L192.64 191.84L198.624 193.175C196.187 187.538 193.531 182.441 190.765 178.686L191.981 177.79Z" fill="#0A275E"/>
<path fill-rule="evenodd" clip-rule="evenodd" d="M223.496 182.951C224.588 179.034 225.628 175.49 226.563 172.564C227.649 169.166 228.576 166.657 229.267 165.356L227.933 164.648C227.17 166.084 226.206 168.717 225.124 172.104C224.035 175.51 222.81 179.734 221.529 184.392C220.635 187.641 219.714 191.104 218.792 194.65L216.61 189.524L215.22 190.116L218.171 197.05C217.057 201.378 215.951 205.786 214.902 210.045C213.086 217.419 211.44 224.346 210.216 229.634L211.687 229.975C212.892 224.772 214.506 217.978 216.289 210.733L223.717 206.756L223.004 205.424L216.776 208.759C217.722 204.939 218.707 201.025 219.698 197.178C220.776 192.996 221.86 188.894 222.906 185.081L228.993 181.365L228.206 180.075L223.496 182.951Z" fill="white"/>
<path fill-rule="evenodd" clip-rule="evenodd" d="M235.338 204.468C237.174 202.559 238.968 200.866 240.655 199.509L239.708 198.332C237.487 200.119 235.118 202.441 232.739 205.027C231.197 206.703 229.647 208.494 228.127 210.331L228.518 207.863L227.026 207.626L226.226 212.668C224.223 215.172 222.299 217.707 220.545 220.103C217.806 223.843 215.477 227.248 213.903 229.669L215.169 230.492C216.684 228.163 218.912 224.902 221.538 221.305H226.941V219.794H222.649C224.184 217.725 225.83 215.577 227.53 213.456C229.534 210.956 231.612 208.495 233.671 206.246L238.915 205.458L238.691 203.964L235.338 204.468Z" fill="#0A275E"/>
<path d="M106.139 37.8018C106.139 31.2365 111.464 25.9143 118.034 25.9143H206.9C213.47 25.9143 218.796 31.2365 218.796 37.8018V218.081C218.796 224.646 213.47 229.968 206.9 229.968H118.034C111.464 229.968 106.139 224.646 106.139 218.081V37.8018Z" fill="white"/>
<path fill-rule="evenodd" clip-rule="evenodd" d="M105.439 37.8018C105.439 30.8504 111.078 25.2151 118.034 25.2151H206.9C213.856 25.2151 219.495 30.8504 219.495 37.8018V218.081C219.495 225.032 213.856 230.667 206.9 230.667H118.034C111.078 230.667 105.439 225.032 105.439 218.081V37.8018ZM118.034 26.6136C111.851 26.6136 106.838 31.6227 106.838 37.8018V218.081C106.838 224.26 111.851 229.269 118.034 229.269H206.9C213.083 229.269 218.096 224.26 218.096 218.081V37.8018C218.096 31.6228 213.083 26.6136 206.9 26.6136H118.034Z" fill="#0A275E"/>
<path d="M139.396 195.577C139.396 193.646 140.963 192.08 142.895 192.08H183.078C185.01 192.08 186.576 193.646 186.576 195.577V198.632C186.576 200.563 185.01 202.128 183.078 202.128H142.895C140.963 202.128 139.396 200.563 139.396 198.632V195.577Z" fill="#FADCC0"/>
<path d="M139.282 31.2858L136.416 25.9141H188.519L185.036 31.7156C183.266 34.6643 180.077 36.4686 176.636 36.4686H147.926C144.308 36.4686 140.985 34.4759 139.282 31.2858Z" fill="#0A275E"/>
<path d="M215.979 30.1361H108.955C112.616 26.4772 116.113 25.797 117.404 25.9143H207.53C212.036 25.9143 215.04 28.7288 215.979 30.1361Z" fill="#0A275E"/>
<path d="M215.979 225.746H108.955C112.616 229.405 116.113 230.085 117.404 229.968H207.53C212.036 229.968 215.04 227.154 215.979 225.746Z" fill="#0A275E"/>
<path fill-rule="evenodd" clip-rule="evenodd" d="M175.361 80.7059H126.248V79.3074H175.361V80.7059Z" fill="#FADCC0"/>
<path fill-rule="evenodd" clip-rule="evenodd" d="M198.951 68.3392H126.248V66.9407H198.951V68.3392Z" fill="#FADCC0"/>
<path d="M150.998 170.07C150.998 168.139 152.564 166.574 154.497 166.574H157.554C159.486 166.574 161.053 168.139 161.053 170.07V173.126C161.053 175.056 159.486 176.622 157.554 176.622H154.497C152.564 176.622 150.998 175.056 150.998 173.126V170.07Z" fill="#0A275E"/>
<path fill-rule="evenodd" clip-rule="evenodd" d="M168.861 170.07C168.861 167.753 170.741 165.875 173.059 165.875H176.117C178.435 165.875 180.315 167.753 180.315 170.07V173.126C180.315 175.443 178.435 177.321 176.117 177.321H173.059C170.741 177.321 168.861 175.443 168.861 173.126V170.07ZM173.059 167.273C171.513 167.273 170.26 168.525 170.26 170.07V173.126C170.26 174.67 171.513 175.923 173.059 175.923H176.117C177.662 175.923 178.916 174.67 178.916 173.126V170.07C178.916 168.525 177.662 167.273 176.117 167.273H173.059Z" fill="#FADCC0"/>
<path d="M185.803 148.788V98.9614C185.803 97.0304 184.236 95.4651 182.304 95.4651H148.742C147.814 95.4651 146.924 95.8334 146.268 96.4891L139.648 103.105C138.992 103.761 138.623 104.65 138.623 105.577V148.788C138.623 150.719 140.189 152.285 142.122 152.285H182.304C184.236 152.285 185.803 150.719 185.803 148.788Z" fill="white"/>
<path fill-rule="evenodd" clip-rule="evenodd" d="M145.773 95.9947C146.561 95.2079 147.629 94.7659 148.742 94.7659H182.304C184.623 94.7659 186.503 96.6443 186.503 98.9615V148.789C186.503 151.106 184.623 152.984 182.304 152.984H142.122C139.803 152.984 137.923 151.106 137.923 148.789V105.577C137.923 104.465 138.366 103.397 139.153 102.611L145.773 95.9947ZM148.742 96.1644C148 96.1644 147.288 96.4591 146.763 96.9836L140.143 103.6C139.618 104.124 139.323 104.836 139.323 105.577V148.789C139.323 150.333 140.576 151.586 142.122 151.586H182.304C183.85 151.586 185.103 150.333 185.103 148.789V98.9615C185.103 97.4167 183.85 96.1644 182.304 96.1644H148.742Z" fill="#0A275E"/>
<path d="M138.825 104.129L147.495 95.4653V102.032C147.495 103.19 146.555 104.129 145.396 104.129H138.825Z" fill="#0A275E"/>
<path fill-rule="evenodd" clip-rule="evenodd" d="M158.987 107.246H148.503V105.848H158.987V107.246ZM175.117 116.918H148.503V115.519H175.117V116.918ZM175.117 125.179H148.503V123.78H175.117V125.179ZM175.117 133.641H148.503V132.243H175.117V133.641ZM170.278 141.499H148.503V140.101H170.278V141.499Z" fill="#0A275E"/>
<path d="M113.237 205.545L116.125 230.668H37.4189L39.9462 205.545H113.237Z" fill="#0A275E"/>
<path d="M68.4678 96.1513L67.3847 105.538L67.7457 112.759L81.104 114.203L86.8806 106.982L85.7975 96.1513C87.9988 94.8934 89.6523 91.4442 90.0422 86.0423C90.7935 85.8016 92.2962 84.6704 92.2962 82.0709C92.2962 79.4715 90.6493 78.5809 89.8258 78.4606C88.6538 69.6969 84.1074 66.5464 76.4106 66.5464C69.0314 66.5464 65.0306 71.3727 63.8164 78.4606C62.96 78.3402 61.2471 78.8938 61.2471 82.0709C61.2471 85.248 62.7858 86.0423 63.5551 86.0423C64.2609 92.1631 67.4022 95.2989 68.4678 96.1513Z" fill="white"/>
<path fill-rule="evenodd" clip-rule="evenodd" d="M68.3385 70.3773C66.4059 72.3268 65.1514 75.1441 64.5614 78.5881L64.4376 79.3105L63.7118 79.2085C63.4881 79.1771 63.0872 79.2308 62.7376 79.5707C62.3942 79.9047 62.0029 80.6125 62.0029 82.0709C62.0029 83.5419 62.3586 84.3496 62.7008 84.7736C63.0461 85.2014 63.4114 85.287 63.5556 85.287H64.2289L64.306 85.9558C64.9841 91.8366 67.9936 94.8043 68.9401 95.5615L69.2665 95.8226L68.1427 105.563L68.4684 112.077L80.7736 113.408L86.0988 106.751L84.9976 95.7387L85.4232 95.4955C86.3374 94.9731 87.2103 93.9508 87.9069 92.3495C88.6013 90.7533 89.0986 88.629 89.2893 85.9879L89.326 85.4787L89.8122 85.323C90.2558 85.1808 91.5413 84.3367 91.5413 82.0709C91.5413 79.8832 90.207 79.2796 89.717 79.2079L89.1531 79.1255L89.0776 78.5607C88.5061 74.2875 87.1301 71.5152 85.0801 69.7958C83.0248 68.072 80.168 67.3017 76.411 67.3017C72.9005 67.3017 70.256 68.443 68.3385 70.3773ZM67.2657 69.3137C69.4969 67.0629 72.5424 65.791 76.411 65.791C80.3509 65.791 83.6157 66.5959 86.0509 68.6383C88.3998 70.6084 89.8619 73.6328 90.5037 77.8611C91.6385 78.2787 93.052 79.5135 93.052 82.0709C93.052 84.5853 91.7881 85.9865 90.7601 86.5491C90.5382 89.1097 90.0294 91.2577 89.2922 92.9521C88.6013 94.5404 87.6922 95.7681 86.5958 96.5382L87.6633 107.214L81.4354 114.999L67.024 113.441L66.6276 105.514L67.6716 96.4656C66.3446 95.2803 63.6594 92.1846 62.8768 86.6849C62.4157 86.5346 61.9328 86.2273 61.5253 85.7224C60.9059 84.955 60.4922 83.777 60.4922 82.0709C60.4922 80.3521 60.9573 79.1947 61.6845 78.4876C62.1536 78.0315 62.6916 77.8032 63.1845 77.7238C63.8513 74.3392 65.174 71.4237 67.2657 69.3137Z" fill="#0A275E"/>
<path d="M61.6087 72.323C61.031 75.789 61.6087 80.6268 63.0528 82.432L65.9412 76.2944C66.8076 76.8721 70.8753 77.0165 72.4398 77.0165C78.5052 76.7276 82.9098 73.2858 84.354 71.6009C84.6428 74.2004 88.5661 81.1082 90.1306 84.2372C92.0561 81.3489 93.3077 73.7671 91.5747 66.5464C89.8417 59.3257 85.0761 58.9647 82.1878 59.6868C74.245 53.5492 65.219 54.2712 60.8866 60.4088C57.4207 65.3189 59.4425 70.3975 61.6087 72.323Z" fill="#0A275E"/>
<path d="M45.0526 213.18C43.1744 211.406 42.2918 209.832 42.0852 209.267C39.7659 210.704 34.3894 211.695 32.7253 214.21C30.6451 217.353 34.9321 226.718 36.5559 227.586C38.1798 228.453 44.3032 226.907 45.8617 225.492C47.1086 224.36 46.0072 221.262 45.2485 220.027C46.068 219.395 48.397 219.092 48.2613 217.542C48.0916 215.606 47.4004 215.397 45.0526 213.18Z" fill="white"/>
<path fill-rule="evenodd" clip-rule="evenodd" d="M42.4764 208.136L42.7949 209.008C42.9513 209.436 43.7547 210.915 45.5714 212.631C46.0084 213.043 46.3842 213.383 46.7163 213.683C46.825 213.781 46.929 213.875 47.029 213.966C47.4254 214.326 47.7701 214.65 48.0486 214.976C48.6579 215.69 48.9184 216.385 49.014 217.476C49.1256 218.751 48.1691 219.43 47.4628 219.798C47.1614 219.956 46.8347 220.093 46.5568 220.21C46.4955 220.236 46.4366 220.261 46.3809 220.285C46.3417 220.301 46.3042 220.318 46.2684 220.333C46.5815 220.992 46.8825 221.823 47.0481 222.65C47.1646 223.232 47.2223 223.852 47.148 224.43C47.0736 225.01 46.8574 225.608 46.3698 226.051C45.8776 226.498 45.0999 226.9 44.2615 227.239C43.4024 227.585 42.4029 227.895 41.407 228.13C40.4126 228.364 39.4005 228.53 38.5172 228.578C37.6784 228.623 36.8049 228.575 36.2003 228.252C35.8495 228.065 35.524 227.715 35.2438 227.355C34.9464 226.972 34.6341 226.49 34.3238 225.946C33.7024 224.855 33.0614 223.465 32.5405 222.005C32.0206 220.549 31.6095 218.994 31.4666 217.58C31.3269 216.197 31.4279 214.802 32.0956 213.793C32.5981 213.034 33.3508 212.431 34.1726 211.933C34.9988 211.432 35.9434 211.01 36.8776 210.634C37.4186 210.416 37.9883 210.201 38.5326 209.996C38.9076 209.855 39.2706 209.719 39.6038 209.588C40.4578 209.255 41.1718 208.945 41.6876 208.625L42.4764 208.136ZM34.9552 213.225C34.2284 213.665 33.6849 214.129 33.3554 214.627C32.983 215.19 32.8399 216.144 32.9696 217.428C33.0962 218.681 33.4683 220.111 33.9632 221.498C34.457 222.881 35.0622 224.19 35.6363 225.198C35.9238 225.702 36.1965 226.119 36.4362 226.427C36.6931 226.757 36.8569 226.89 36.912 226.919C37.1194 227.03 37.6202 227.114 38.435 227.069C39.2052 227.027 40.1258 226.88 41.0601 226.66C41.9928 226.44 42.918 226.152 43.6961 225.838C44.4949 225.515 45.0671 225.194 45.3542 224.933C45.49 224.809 45.6036 224.596 45.6497 224.238C45.6958 223.879 45.6646 223.435 45.5668 222.946C45.3704 221.966 44.939 220.966 44.6052 220.423L44.2497 219.844L44.7872 219.429C45.0803 219.203 45.4688 219.031 45.7876 218.895C45.8575 218.865 45.9261 218.837 45.9935 218.808C46.268 218.692 46.5231 218.585 46.7639 218.459C47.393 218.131 47.5331 217.883 47.509 217.608C47.435 216.763 47.265 216.385 46.8993 215.956C46.6903 215.711 46.4114 215.446 46.0126 215.083C45.9184 214.998 45.8182 214.907 45.7119 214.811C45.378 214.51 44.9847 214.154 44.5342 213.729C43.1281 212.401 42.2358 211.159 41.7536 210.309C41.2617 210.55 40.714 210.777 40.1532 210.996C39.778 211.142 39.4041 211.283 39.0281 211.424C38.5068 211.62 37.9813 211.818 37.4419 212.035C36.5341 212.401 35.6776 212.787 34.9552 213.225Z" fill="#0A275E"/>
<path fill-rule="evenodd" clip-rule="evenodd" d="M42.1009 110.962C41.8658 111.064 41.6288 111.181 41.3903 111.315C22.6164 122.868 11.4243 161.138 11.7853 169.803C12.1464 178.468 26.2268 216.015 29.8371 216.376C32.8549 216.678 41.9266 213.701 44.8232 210.818C53.9534 213.127 68.207 213.127 78.577 213.127C96.2678 213.127 113.597 211.683 116.486 206.989C117.455 205.414 116.365 199.889 115.403 196.519C117.569 200.611 124.573 207.278 135.26 201.213C148.618 193.631 142.48 170.525 131.288 136.226C122.335 108.788 99.156 102.409 88.686 102.65C88.686 105.057 86.4476 109.871 77.4939 109.871C68.5402 109.871 66.5424 105.057 66.3018 102.65C61.9693 102.77 51.066 104.6 42.1123 110.954C42.1085 110.957 42.1047 110.959 42.1009 110.962Z" fill="white"/>
<path fill-rule="evenodd" clip-rule="evenodd" d="M66.9833 101.875L67.0532 102.575C67.1592 103.634 67.6561 105.252 69.1394 106.605C70.6154 107.952 73.1543 109.115 77.4938 109.115C81.8348 109.115 84.4364 107.951 85.9434 106.6C87.4597 105.242 87.9305 103.642 87.9305 102.65V101.912L88.6685 101.895C99.3794 101.649 122.923 108.157 132.006 135.992C137.598 153.127 141.957 167.552 143.231 178.652C144.501 189.722 142.737 197.838 135.632 201.87C130.101 205.009 125.432 204.889 121.842 203.371C119.88 202.541 118.266 201.305 117.021 200C117.177 200.779 117.314 201.567 117.417 202.326C117.556 203.346 117.636 204.333 117.616 205.181C117.596 205.994 117.483 206.81 117.129 207.385C116.26 208.797 114.411 209.838 112.078 210.643C109.704 211.461 106.66 212.09 103.185 212.567C96.2304 213.521 87.436 213.882 78.5769 213.882H78.5061C68.328 213.882 54.271 213.882 45.0395 211.649C44.2554 212.342 43.1992 213.007 42.0329 213.615C40.6908 214.314 39.1576 214.96 37.6281 215.503C36.0985 216.046 34.5592 216.49 33.2021 216.779C31.8653 217.065 30.6377 217.216 29.7619 217.128C29.2628 217.078 28.8363 216.745 28.5133 216.427C28.1614 216.081 27.793 215.609 27.4145 215.051C26.6548 213.931 25.7895 212.365 24.8671 210.5C23.0191 206.765 20.8997 201.742 18.887 196.473C16.8735 191.202 14.9605 185.667 13.5271 180.902C12.1029 176.168 11.1253 172.109 11.0305 169.834C10.9353 167.548 11.5936 163.438 12.8874 158.444C14.1882 153.422 16.1518 147.43 18.7161 141.348C23.8263 129.229 31.3939 116.58 40.9943 110.672L41.0075 110.663L41.0211 110.656C41.2558 110.524 41.4907 110.406 41.7256 110.302C50.8246 103.867 61.8535 102.018 66.2807 101.895L66.9833 101.875ZM89.3852 103.399C89.1932 104.722 88.4873 106.349 86.9515 107.726C85.1008 109.384 82.1064 110.626 77.4938 110.626C72.8795 110.626 69.9427 109.383 68.1212 107.721C66.6041 106.337 65.9205 104.716 65.6585 103.435C61.0513 103.709 50.9245 105.629 42.5561 111.565L42.5535 111.567L42.4821 111.62L42.4002 111.656C42.1944 111.745 41.9851 111.848 41.7726 111.966C32.6054 117.615 25.1947 129.872 20.1081 141.935C17.5728 147.948 15.6326 153.871 14.3498 158.823C13.06 163.802 12.4547 167.725 12.5399 169.771C12.6256 171.829 13.5435 175.713 14.9737 180.467C16.3948 185.191 18.2953 190.69 20.2982 195.934C22.302 201.18 24.4023 206.154 26.2211 209.83C27.1321 211.672 27.962 213.167 28.6647 214.203C29.0174 214.723 29.3221 215.103 29.5733 215.351C29.8114 215.585 29.9241 215.623 29.9232 215.625C29.9231 215.626 29.9226 215.626 29.9216 215.626C30.5555 215.687 31.5897 215.579 32.8867 215.302C34.1699 215.028 35.6453 214.604 37.1229 214.079C38.6006 213.555 40.0672 212.935 41.3349 212.275C42.6133 211.609 43.6455 210.924 44.2903 210.282L44.5935 209.98L45.0084 210.085C54.0262 212.366 68.1691 212.372 78.5769 212.372C87.4086 212.372 96.1244 212.011 102.98 211.07C106.41 210.599 109.345 209.987 111.586 209.214C113.867 208.428 115.267 207.528 115.842 206.594C115.973 206.381 116.087 205.916 116.106 205.145C116.123 204.408 116.053 203.508 115.92 202.529C115.655 200.574 115.15 198.386 114.676 196.727L116.07 196.166C117.089 198.091 119.264 200.64 122.43 201.979C125.555 203.301 129.731 203.482 134.887 200.556C141.141 197.006 142.987 189.778 141.73 178.824C140.476 167.902 136.171 153.624 130.57 136.461C121.937 110.004 99.9139 103.45 89.3852 103.399Z" fill="#0A275E"/>
<path d="M57.7664 117.913C57.77 116.662 58.7875 115.65 60.039 115.654L91.4759 115.744C92.7274 115.748 93.739 116.765 93.7354 118.017L93.6121 160.825C93.6084 162.076 92.591 163.088 91.3395 163.084L59.9026 162.994C58.6511 162.99 57.6395 161.973 57.6431 160.721L57.7664 117.913Z" fill="white"/>
<path fill-rule="evenodd" clip-rule="evenodd" d="M57.0113 117.911C57.0161 116.243 58.3727 114.894 60.0414 114.899L91.4783 114.989C93.1469 114.994 94.4957 116.351 94.4909 118.019L94.3676 160.827C94.3628 162.496 93.0062 163.845 91.3376 163.84L59.9007 163.749C58.232 163.745 56.8832 162.388 56.888 160.719L57.0113 117.911ZM60.037 116.409C59.2027 116.407 58.5244 117.081 58.522 117.916L58.3987 160.724C58.3963 161.558 59.0707 162.236 59.905 162.239L91.3419 162.329C92.1762 162.332 92.8545 161.657 92.8569 160.823L92.9802 118.015C92.9826 117.181 92.3082 116.502 91.4739 116.5L60.037 116.409Z" fill="#0A275E"/>
<path d="M115.402 196.88L96.2676 163.304C97.7117 175.579 109.265 196.158 116.847 204.462C116.847 202.729 115.764 198.084 115.402 196.88Z" fill="#0A275E"/>
<path d="M126.956 165.831C121.625 160.856 110.349 150.985 107.241 150.675C107.193 150.674 107.146 150.672 107.099 150.668C107.144 150.668 107.192 150.67 107.241 150.675C108.659 150.705 110.348 149.396 110.348 143.808C113.958 153.556 124.428 158.25 126.956 165.831Z" fill="#0A275E"/>
<path d="M96.629 159.333L106.016 152.008C104.866 150.999 102.22 147.771 100.84 142.928C99.4598 138.085 95.8942 136.202 94.2839 135.865V140.574C93.0187 139.453 90.0051 137.48 88.0728 138.556C85.6574 139.901 86.6925 150.663 87.0376 152.008C87.3827 153.353 91.8685 155.371 93.5938 155.707C94.974 155.976 95.5459 157.527 96.629 159.333Z" fill="white"/>
<path fill-rule="evenodd" clip-rule="evenodd" d="M93.5285 134.936L94.4383 135.126C96.2931 135.513 100.101 137.58 101.566 142.721C102.906 147.422 105.472 150.526 106.514 151.44L107.2 152.042L96.4206 160.453L95.9813 159.721C95.7642 159.36 95.5655 159.005 95.383 158.679C95.3321 158.588 95.2824 158.5 95.2339 158.414C95.007 158.011 94.8061 157.667 94.6031 157.376C94.1972 156.793 93.856 156.528 93.4492 156.449C92.4872 156.261 90.8622 155.638 89.4508 154.907C88.7387 154.538 88.0482 154.126 87.5028 153.704C87.2302 153.493 86.9783 153.268 86.7754 153.033C86.5783 152.804 86.3896 152.522 86.3059 152.196C86.2022 151.792 86.069 150.808 85.9617 149.594C85.8523 148.358 85.7646 146.822 85.7646 145.282C85.7646 143.749 85.8514 142.18 86.1021 140.892C86.2273 140.248 86.3989 139.645 86.6384 139.141C86.8738 138.645 87.2098 138.172 87.7052 137.896C88.9932 137.179 90.5224 137.526 91.7284 138.048C92.3738 138.327 92.9902 138.683 93.5285 139.045V134.936ZM95.0392 136.907V142.252L93.7829 141.139C93.1943 140.618 92.1912 139.894 91.1286 139.434C90.0284 138.958 89.0847 138.857 88.4403 139.216C88.3318 139.276 88.1718 139.433 88.0029 139.789C87.838 140.136 87.6969 140.605 87.5849 141.18C87.3612 142.33 87.2753 143.788 87.2753 145.282C87.2753 146.769 87.3602 148.26 87.4665 149.461C87.5748 150.686 87.7004 151.552 87.7692 151.821C87.7692 151.82 87.7706 151.826 87.7755 151.837C87.7803 151.848 87.7881 151.864 87.8001 151.885C87.8247 151.926 87.8629 151.981 87.9198 152.047C88.035 152.18 88.2036 152.336 88.427 152.509C88.8737 152.854 89.4772 153.22 90.1454 153.565C91.4944 154.264 92.975 154.817 93.7383 154.966C94.7117 155.156 95.3466 155.801 95.8425 156.512C96.0904 156.868 96.3218 157.267 96.5498 157.672C96.6023 157.765 96.6546 157.858 96.7072 157.952C96.754 158.035 96.8009 158.119 96.8484 158.203L104.873 151.942C103.483 150.446 101.324 147.383 100.114 143.135C99.0527 139.413 96.6312 137.598 95.0392 136.907Z" fill="#0A275E"/>
<path d="M15.0347 183.522C20.8112 172.258 17.9229 156.685 15.7567 150.307C14.6736 154.399 12.363 163.593 11.7853 167.636C11.2077 171.68 13.7109 179.912 15.0347 183.522Z" fill="#0A275E"/>
<path d="M115.042 195.797C123.706 189.443 136.944 190.021 142.48 191.104C141.879 193.751 140.314 199.824 132.01 203.018C122.623 206.628 117.087 199.528 115.042 195.797Z" fill="#0A275E"/>
<path d="M41.3901 174.135C41.679 168.647 45.1208 155.482 46.8057 149.585C44.2784 156.083 37.7798 166.914 37.7798 174.135C37.7798 179.912 43.075 199.648 45.7226 208.795C44.1581 199.528 41.1013 179.623 41.3901 174.135Z" fill="#0A275E"/>
<path d="M76.6863 99.4752C72.0651 99.4752 69.2249 97.1886 68.3825 96.2258L68.0215 99.8362C76.1087 104.457 83.4257 101.762 86.0733 99.8362L85.7122 96.2258C84.6291 97.1886 81.3076 99.4752 76.6863 99.4752Z" fill="#0A275E"/>
</svg>
